<?xml version="1.0" encoding="utf-8"?>
<!-- Generator: Adobe Illustrator 28.2.0, SVG Export Plug-In . SVG Version: 6.00 Build 0)  -->
<svg version="1.1" id="Assets" xmlns="http://www.w3.org/2000/svg" xmlns:xlink="http://www.w3.org/1999/xlink" x="0px" y="0px"
	 viewBox="0 0 1920 512.2" style="enable-background:new 0 0 1920 512.2;" xml:space="preserve">
<g>
	<path d="M48.4,252.9c0-138.5,78.4-200.3,166.9-200.3c84,0,133.5,49,146.9,108.5H301c-10-31.2-38.9-55.6-85.7-55.6
		c-65.1,0-108.5,56.2-108.5,147.4s43.4,147.4,108.5,147.4c46.7,0,75.7-24.5,85.7-55.6h61.2c-13.4,59.5-62.9,108.5-146.9,108.5
		C126.9,453.1,48.4,391.4,48.4,252.9z"/>
	<path d="M403.4,447.6V58.2H459v278.2c0,30.6,25,55.6,55.6,55.6h111.3v55.6H403.4z"/>
	<path d="M634.8,252.9c0-138.5,78.4-200.3,166.9-200.3s166.9,61.7,166.9,200.3s-78.4,200.3-166.9,200.3S634.8,391.4,634.8,252.9z
		 M910.2,252.9c0-91.2-43.4-147.4-108.5-147.4s-108.5,56.2-108.5,147.4s43.4,147.4,108.5,147.4S910.2,344.1,910.2,252.9z"/>
	<path d="M1003.1,447.6V392h76.2c14.5,0,28.9-5.6,39.5-16.1c21.7-21.7,21.7-57.3,0-79l-115.7-115.7V58.2h222.5v55.6h-76.2
		c-14.5,0-28.9,5.6-39.5,16.1c-21.7,21.7-21.7,57.3,0,79l115.7,115.7v122.9H1003.1z"/>
	<path d="M1277.4,447.6V58.2h250.3v55.6h-139.1c-30.6,0-55.6,25-55.6,55.6s25,55.6,55.6,55.6h139.1v55.6h-139.1
		c-30.6,0-55.6,25-55.6,55.6s25,55.6,55.6,55.6h139.1v55.6H1277.4z"/>
	<path d="M1871.6,252.9c0,134.6-78.4,194.7-166.9,194.7h-125.2V58.2h125.2C1793.1,58.2,1871.6,118.2,1871.6,252.9z M1704.7,392
		c65.1,0,108.5-52.9,108.5-139.1c0-86.2-43.4-139.1-108.5-139.1h-13.9c-30.6,0-55.6,25-55.6,55.6v166.9c0,30.6,25,55.6,55.6,55.6
		H1704.7z"/>
</g>
</svg>
